<svg width="357" height="208" viewBox="0 0 357 208" fill="none" xmlns="http://www.w3.org/2000/svg">
<path d="M356.235 83.1701C342.902 98.3367 308.735 123.17 253.235 131.67C241.235 133.337 213.935 138.77 200.735 147.17C184.235 157.67 175.235 154.67 159.235 172.67C143.235 190.67 142.235 203.67 116.735 206.67C91.2354 209.67 78.2354 204.17 71.7354 196.67C65.2354 189.17 56.7353 162.67 88.7353 147.17C93.0686 144.837 103.535 139.97 110.735 139.17L116.735 134.17C115.402 131.67 107.235 126.87 85.2354 127.67C63.2354 128.47 19.7354 101.003 0.735352 87.1701C8.56869 78.1701 30.3354 60.4701 54.7354 61.6701C104.235 61.6701 150.499 92.1701 152.735 92.1701C157.235 92.1701 161.235 60.1701 149.235 34.6701C143.902 27.0034 133.135 11.2701 132.735 9.6701C132.235 7.6701 157.735 -4.32989 176.735 2.67011C195.735 9.67011 206.735 31.1702 209.235 38.6702C214.035 59.8702 213.569 81.5035 212.735 89.6702C228.902 79.5034 266.335 59.67 286.735 61.6701C336.335 59.2701 353.735 75.0034 356.235 83.1701Z" fill="#B0BE8E" stroke="#B0BE8E"/>
</svg>
