<svg width="249" height="194" viewBox="0 0 249 194" fill="none" xmlns="http://www.w3.org/2000/svg">
<path d="M49.6425 118.5L196.142 0C196.542 0 212.976 13 221.143 19.5C220.976 21.1667 220.743 24.7 221.143 25.5C221.643 26.5 224.143 25.5 224.643 25.5C225.043 25.5 240.809 43.5 248.643 52.5L162.393 106.25L76.1426 160C75.9759 168 71.6426 185.4 55.6426 191C35.6426 198 28.1426 189.5 26.1426 189.5C24.5426 189.5 23.4759 191.833 23.1426 193C19.1425 191.333 9.74246 185.8 4.14246 177C-1.45754 168.2 -0.190874 154 1.14246 148C2.14246 144 7.64246 133.3 21.6425 122.5C29.2425 116.1 43.4758 117.167 49.6425 118.5Z" fill="#FEFCEF"/>
<path fill-rule="evenodd" clip-rule="evenodd" d="M63.1692 132.179C59.6293 128.458 56.2869 124.943 53.1426 124C51.7924 123.595 50.5152 122.971 49.1731 122.316C45.5449 120.544 41.4423 118.54 34.1426 120C26.1426 121.6 28.1426 122.667 30.1426 123" fill="#F4E8CA"/>
<path fill-rule="evenodd" clip-rule="evenodd" d="M53.1426 124C56.2869 124.943 59.6293 128.458 63.1692 132.179C65.2581 134.376 67.4159 136.645 69.6426 138.5C75.6426 143.5 77.1426 156.5 76.6426 157C76.1426 157.5 74.1426 158.5 73.6426 158.5C73.4293 158.5 73.398 159.956 73.3545 161.975C73.2962 164.689 73.216 168.42 72.6426 171C71.6426 175.5 59.1426 186.5 56.6426 188.5C54.1426 190.5 37.1426 191 35.1426 191C34.3383 191 32.9681 190.434 31.4871 189.822C29.2852 188.913 26.8383 187.902 25.6426 188.5C24.1232 188.12 23.3853 189.814 23.1721 190.842C22.3906 190.306 20.3988 189.054 16.1426 186.5C6.14258 180.5 2.64258 168 2.64258 165.5C2.64258 163.5 3.6425 162.333 4.14246 162C8.80917 168.167 20.5426 181.2 30.1426 184C39.1822 186.637 47.0869 182.18 52.788 178.966C54.6551 177.913 56.2858 176.993 57.6426 176.5C63.1426 174.5 71.1426 159 67.1426 146.5C64.0619 136.873 58.0154 134.067 52.8862 131.687C51.3556 130.977 49.9066 130.305 48.6426 129.5C44.2426 126.7 34.4759 124 30.1426 123C28.1426 122.667 26.1426 121.6 34.1426 120C41.4423 118.54 45.5449 120.544 49.1731 122.316C50.5152 122.971 51.7924 123.595 53.1426 124Z" fill="#F4E8CA"/>
</svg>
